<?xml version="1.0" encoding="utf-8"?>
<!-- Generator: Adobe Illustrator 22.1.0, SVG Export Plug-In . SVG Version: 6.00 Build 0)  -->
<svg version="1.1" id="Ebene_1" xmlns="http://www.w3.org/2000/svg" xmlns:xlink="http://www.w3.org/1999/xlink" x="0px" y="0px"
	 viewBox="0 0 566.9 566.9" style="enable-background:new 0 0 566.9 566.9;" xml:space="preserve">
<style type="text/css">
	.st0{fill:none;stroke:#1A171B;stroke-width:1.5;}
	.st1{fill:none;stroke:#000000;stroke-width:1.8418;}
	.st2{fill:#1A171B;}
	.st3{fill:none;}
	.st4{clip-path:url(#SVGID_2_);fill:#1A171B;}
	.st5{fill:#FFFFFF;}
</style>
<g>
	<path class="st0" d="M281,5.4"/>
	<path class="st0" d="M257.2,5.8"/>
	<path class="st1" d="M28.8-8.5"/>
	<path class="st2" d="M489.8,509.6"/>
	<path class="st2" d="M491.5,510.9"/>
	<g>
		<path class="st2" d="M145.6,507.8l37-100.8h169.7l36.2,102l-3.4,1.2l-35.3-99.6H185.1l-36.6,99.8 M42.4,512.4L214.9,59.5l1.1-0.8
			h2.8l-0.1,1l-0.3,0.7L48,507.8l0,0 M488.1,509L317.5,59.7l3.4-1.3l172.3,454L488.1,509z M329.3,339.1l-124.3,0l63.2-184.8
			L329.3,339.1z M210,335.5h114.3l-56.3-170L210,335.5z"/>
	</g>
	<path class="st0" d="M212.9,50.8"/>
	<path class="st2" d="M268.8,93.8c-2.9,0-5.7-0.8-8-2.3l-46.1-31.8l1.3-3.4l46.7,32.3c3.2,2.2,8.8,2.2,12,0l45.6-31.3l1.2,3.3
		l-44.8,30.9C274.6,93.1,271.7,93.8,268.8,93.8z"/>
	<path class="st0" d="M279.4,67.9"/>
	<path class="st0" d="M281.3,100.9"/>
	<line class="st3" x1="322.9" y1="92.3" x2="326.3" y2="101.4"/>
	<rect x="215.7" y="56.8" class="st3" width="66.5" height="36.8"/>
	<path class="st2" d="M438.7,474.1c-2.9,0-5.7,0.8-8,2.3l-46.3,32l1.2,3.4l47-32.5c3.3-2.2,8.8-2.2,12,0l43.8,30.1l2.5-2.3
		l-44.4-30.6C444.4,474.9,441.5,474.1,438.7,474.1z"/>
	<path class="st2" d="M97.6,474.3c-2.9,0-5.7,0.8-8,2.3l-45.7,31.6l-2.2,5.7l49.8-34.4c3.3-2.2,8.8-2.2,12,0l44.9,30.8l1.2-3.3
		l-44.1-30.4C103.3,475.1,100.4,474.3,97.6,474.3z"/>
	<line class="st3" x1="59.2" y1="502.1" x2="36.9" y2="517.5"/>
	<path class="st2" d="M258.1,315.6h114.3l-56.3-170L258.1,315.6z M377.4,319.2H253.1l63.2-184.8L377.4,319.2z M365.6,39.8l3.4-1.3
		l172.4,454.2l-5.1-3.6 M90.5,492.6L263.1,39.6l1.1-0.8h2.8l-0.1,1l-0.3,0.7L96.1,487.9 M193.8,487.9l37-100.8h169.7l36.2,102
		l-3.4,1.2l-35.3-99.6H233.3l-36.6,99.8"/>
	<g>
		<defs>
			<rect id="SVGID_1_" x="89.9" y="36.6" width="461.5" height="534.8"/>
		</defs>
		<clipPath id="SVGID_2_">
			<use xlink:href="#SVGID_1_"  style="overflow:visible;"/>
		</clipPath>
		<path class="st4" d="M317,74c-2.9,0-5.7-0.8-8-2.3L263,39.9l1.3-3.4L311,68.8c3.3,2.2,8.8,2.2,12,0l45.6-31.3l1.2,3.3L325,71.7
			C322.7,73.2,319.9,74,317,74"/>
		<path class="st4" d="M486.8,454.2c-2.9,0-5.7,0.8-8,2.3l-46.3,32l1.2,3.4l47-32.5c3.3-2.2,8.8-2.2,12,0l43.8,30.1l2.5-2.3
			l-44.4-30.6C492.6,455,489.7,454.2,486.8,454.2"/>
		<path class="st4" d="M145.7,454.5c-2.9,0-5.7,0.8-8,2.3l-45.7,31.6l-2.2,5.7l49.8-34.4c3.3-2.2,8.8-2.2,12,0l44.9,30.8l1.2-3.3
			l-44.1-30.4C151.5,455.3,148.6,454.5,145.7,454.5"/>
	</g>
	<line class="st5" x1="216.9" y1="58.1" x2="264.9" y2="38.2"/>
	<rect x="214.9" y="46.4" transform="matrix(0.9244 -0.3815 0.3815 0.9244 -0.1565 95.5362)" class="st2" width="52" height="3.6"/>
	<line class="st2" x1="320.8" y1="58.9" x2="369.1" y2="38.9"/>
	<polygon class="st2" points="321.4,60.3 320.2,57.4 368.5,37.5 369.6,40.4 	"/>
	<g>
		<line class="st2" x1="208.5" y1="336.6" x2="255.9" y2="317.1"/>
		
			<rect x="206.6" y="325.3" transform="matrix(0.9247 -0.3808 0.3808 0.9247 -106.9681 113.0656)" class="st2" width="51.3" height="3.1"/>
	</g>
	<g>
		<line class="st2" x1="328" y1="337.9" x2="376.8" y2="317.8"/>
		<polygon class="st2" points="329.2,339.1 328.8,338.9 328.5,339 327.4,336.5 376.2,316.4 377.4,319.3 		"/>
	</g>
	<line class="st5" x1="268.4" y1="156.2" x2="316.9" y2="136"/>
	<polygon class="st2" points="269.1,157.8 268,154.4 316.2,134.3 317.4,137.7 	"/>
	<polygon class="st2" points="385.7,511.7 385.3,507.9 435.1,487.5 433.8,491.9 	"/>
	<g>
		<line class="st2" x1="492.2" y1="510.9" x2="540.8" y2="491.3"/>
		
			<rect x="490.3" y="499.5" transform="matrix(0.9273 -0.3742 0.3742 0.9273 -149.993 229.7048)" class="st2" width="52.4" height="3.1"/>
	</g>
	<g>
		<line class="st2" x1="42.5" y1="511.5" x2="89.4" y2="492.6"/>
		<polygon class="st2" points="43.1,513 43.6,509.4 93,489.5 90,494.1 		"/>
	</g>
	<g>
		<line class="st2" x1="147.8" y1="508.8" x2="196.1" y2="489"/>
		
			<rect x="145.9" y="497.4" transform="matrix(0.9249 -0.3802 0.3802 0.9249 -176.7581 102.8313)" class="st2" width="52.2" height="3.1"/>
	</g>
</g>
</svg>
